<svg width="13" height="13" viewBox="0 0 13 13" fill="none" xmlns="http://www.w3.org/2000/svg">
<path d="M12.5547 1.08594L10.1172 0.523438C9.85938 0.453125 9.57812 0.59375 9.46094 0.851562L8.33594 3.47656C8.24219 3.71094 8.3125 3.96875 8.5 4.13281L9.92969 5.30469C9.08594 7.08594 7.60938 8.58594 5.78125 9.45312L4.60938 8.02344C4.44531 7.83594 4.1875 7.76562 3.95312 7.85938L1.32812 8.98438C1.07031 9.10156 0.953125 9.38281 1 9.64062L1.5625 12.0781C1.63281 12.3359 1.84375 12.5 2.125 12.5C8.125 12.5 13 7.64844 13 1.625C13 1.36719 12.8125 1.15625 12.5547 1.08594Z" fill="white"/>
</svg>
